<svg xmlns="http://www.w3.org/2000/svg" viewBox="0 0 256 256" width="256" height="256">
  <rect width="256" height="256" fill="#111"/>

  <rect x="48" y="88" width="20" height="20" rx="3" fill="#334155"/>
  <rect x="76" y="88" width="20" height="20" rx="3" fill="#334155"/>
  <rect x="104" y="88" width="20" height="20" rx="3" fill="#a78bfa"/>
  <rect x="132" y="88" width="20" height="20" rx="3" fill="#334155"/>
  <rect x="160" y="88" width="20" height="20" rx="3" fill="#334155"/>
  <rect x="188" y="88" width="20" height="20" rx="3" fill="#334155"/>

  <rect x="48" y="116" width="20" height="20" rx="3" fill="#334155"/>
  <rect x="76" y="116" width="20" height="20" rx="3" fill="#334155"/>
  <rect x="104" y="116" width="20" height="20" rx="3" fill="#334155"/>
  <rect x="132" y="116" width="20" height="20" rx="3" fill="#f97316"/>
  <rect x="160" y="116" width="20" height="20" rx="3" fill="#f97316"/>
  <rect x="188" y="116" width="20" height="20" rx="3" fill="#334155"/>

  <rect x="48" y="144" width="20" height="20" rx="3" fill="#334155"/>
  <rect x="76" y="144" width="20" height="20" rx="3" fill="#38bdf8"/>
  <rect x="104" y="144" width="20" height="20" rx="3" fill="#334155"/>
  <rect x="132" y="144" width="20" height="20" rx="3" fill="#334155"/>
  <rect x="160" y="144" width="20" height="20" rx="3" fill="#334155"/>
  <rect x="188" y="144" width="20" height="20" rx="3" fill="#334155"/>
</svg>
